# xmcd
#
# Track frame offsets: 
#        150
#        9320
#        32515
#        50665
#        75490
#        89525
#        99915
#        126572
#        132357
#        142725
#        184227
#        188665
#        198217
#        208650
#        224475
#        241530
#
# Disc length: 3516 seconds
#
# Revision: 3
# Processed by: cddbd v1.5.2PL0 Copyright (c) Steve Scherf et al.
# Submitted via: ExactAudioCopyFreeDBPlugin 1.0
#
DISCID=d50dba10
DTITLE=James Brown - The Great James Brown (3 CD Set Containing Classi
DTITLE=c Performances) [Rajon Music]
DYEAR=2002
DGENRE=Soul
TTITLE0=Introduction - Give it Up or Turn it Loose
TTITLE1=It's Too Funky in Here
TTITLE2=Doing it to Death
TTITLE3=Try Me
TTITLE4=Get on the Good Foot
TTITLE5=Get Up Offa That Thing
TTITLE6=Georgia on My Mind
TTITLE7=Hot Pants
TTITLE8=I Got the Feelin'
TTITLE9=It's a Man's, Man's, Man's World
TTITLE10=Cold Sweat
TTITLE11=I Can't Stand Myself (When You Touch Me)
TTITLE12=Papa's Got a Brand New Bag
TTITLE13=I Got You (I Feel Good)
TTITLE14=Please, Please, Please
TTITLE15=Jam
EXTD=
EXTT0=
EXTT1=
EXTT2=
EXTT3=
EXTT4=
EXTT5=
EXTT6=
EXTT7=
EXTT8=
EXTT9=
EXTT10=
EXTT11=
EXTT12=
EXTT13=
EXTT14=
EXTT15=
PLAYORDER=
